<?xml version="1.0" encoding="utf-8"?>
<!-- Generator: Adobe Illustrator 27.5.0, SVG Export Plug-In . SVG Version: 6.00 Build 0)  -->
<svg version="1.1" id="レイヤー_1" xmlns="http://www.w3.org/2000/svg" xmlns:xlink="http://www.w3.org/1999/xlink" x="0px"
	 y="0px" width="479.937px" height="74.265px" viewBox="0 0 479.937 74.265" enable-background="new 0 0 479.937 74.265"
	 xml:space="preserve">
<g>
	<path d="M94.983,32.36v35.505c0,2.393,1.758,3.797,6.468,3.938v1.477H86.897v-1.477c3.375-0.351,5.836-0.351,6.117-3.938
		c0,0,0-0.067,0.07-0.211V30.32c-1.897-2.038-3.586-4.007-6.116-4.077v-1.477h10.476l34.802,38.177v-32.2
		c0-3.586-1.898-4.079-6.186-4.5v-1.477h14.482v1.477c-4.851,0.773-6.397,2.109-6.397,4.431v43.168h-1.055L94.983,32.36z"/>
	<path d="M140.346,73.28v-1.477c2.04-0.142,3.797-1.478,4.501-3.376l14.342-37.403l-1.265-2.109
		c2.319-1.336,4.008-3.445,5.695-5.484l16.452,41.903c1.547,4.008,2.39,5.906,6.187,6.47v1.477h-18.35v-1.477
		c2.109,0,5.905,0,5.905-2.812c0-2.039-3.937-11.038-4.851-14.134h-16.804c-0.703,2.532-4.781,12.095-4.781,13.923
		c0,2.742,3.727,2.742,5.696,3.023v1.477H140.346z M152.932,52.962h15.256l-7.945-19.899L152.932,52.962z"/>
	<path d="M203.496,26.243h-11.53c-2.602,0-3.305,1.055-4.922,2.953c-2.109,2.461-3.515,5.414-5.695,8.016l-0.914-0.492l2.953-13.078
		c1.969,0.562,4.007,1.125,6.117,1.125h35.013c2.11,0,4.148-0.562,6.117-1.125l2.601,13.148l-0.984,0.493
		c-1.757-2.672-3.164-5.625-5.273-8.086c-1.617-1.898-2.319-2.953-4.921-2.953h-11.46v41.622c0,3.024,1.405,3.727,6.538,3.938v1.477
		h-20.038v-1.477c4.852-0.212,6.398-0.914,6.398-3.938V26.243z"/>
	<path d="M285.938,49.586c0,8.085-4.713,24.678-25.103,24.678c-18.842,0-23.835-15.75-23.835-24.397
		c0-21.163,17.227-25.732,24.188-25.732C272.93,24.134,285.938,32.079,285.938,49.586 M261.682,25.61
		c-8.438,0-17.157,7.452-17.157,24.537c0,12.164,5.906,22.641,16.311,22.641c12.095,0,17.578-12.865,17.578-23.274
		C278.413,32.079,267.867,25.61,261.682,25.61"/>
	<path d="M290.913,73.28v-1.477c3.725,0,6.256-0.351,6.256-3.938V29.547c-0.21-3.022-2.883-3.022-5.554-3.304v-1.477h12.092
		l18.56,39.794l17.509-39.794h11.108v1.477c-3.655,0.281-5.201,0.703-5.201,4.57v37.052c0,3.587,1.896,3.938,5.201,3.938v1.477
		h-18.28v-1.477c4.992-0.351,5.836-0.845,5.978-3.938V30.954h-0.142L320.159,73.28h-1.264l-19.687-41.834h-0.14v36.419
		c0,2.953,2.531,3.938,6.467,3.938v1.477H290.913z"/>
	<path d="M358.812,73.28v-1.477c3.868,0,6.398-0.351,6.398-3.938V30.18c0-3.585-2.53-3.937-6.398-3.937v-1.477h20.039v1.477
		c-4.008,0-6.538,0.352-6.538,3.937v37.686c0,3.587,2.53,3.938,6.538,3.938v1.477H358.812z"/>
	<path d="M427.567,26.243h1.124v16.382h-1.267c-1.194-9.141-7.241-17.015-17.084-17.015c-6.468,0-12.094,4.71-14.835,10.335
		c-1.969,4.078-2.602,9.492-2.602,13.991c0,6.187,1.195,10.266,4.43,15.469c2.462,4.078,7.101,7.383,12.586,7.383
		c9.842,0,15.96-7.242,17.647-16.031h1.335v15.679h-1.478l-1.967-3.305c-4.711,3.165-9.984,5.134-15.749,5.134
		c-15.258,0-24.678-9.493-24.678-24.75c0-14.693,10.545-25.381,25.31-25.381c5.696,0,10.266,2.109,14.978,5.134L427.567,26.243z"/>
	<path d="M434.026,73.28v-1.477c2.038-0.142,3.796-1.478,4.498-3.376l14.345-37.403l-1.267-2.109
		c2.319-1.336,4.007-3.445,5.695-5.484l16.451,41.903c1.548,4.008,2.391,5.906,6.188,6.47v1.477h-18.352v-1.477
		c2.11,0,5.906,0,5.906-2.812c0-2.039-3.938-11.038-4.851-14.134h-16.805c-0.702,2.532-4.781,12.095-4.781,13.923
		c0,2.742,3.727,2.742,5.696,3.023v1.477H434.026z M446.61,52.962h15.257l-7.945-19.899L446.61,52.962z"/>
	<path d="M65.972,66.877L86.15,0c0,0-3.766,4.002-8.648,4.282L11.174,67.865C7.66,70.172,5.683,71.271,0,71.818v1.318h22.32v-1.4
		c0,0-10.378,0.247-6.507-4.365l24.132-23.473l25.038,0.082l-7.165,22.896c0,0-0.083,4.283-10.131,4.776l-0.054,1.483h25.422v-1.483
		C73.055,71.653,64.104,72.478,65.972,66.877 M42.416,41.675L77.008,7.412L65.725,41.675H42.416z"/>
</g>
<rect x="-180.031" y="-259.868" fill="none" width="840" height="594"/>
</svg>
